<svg xmlns="http://www.w3.org/2000/svg" width="17" height="15">
    <path fill="#079FC2" fill-rule="evenodd" d="M15.966 14.783H1.21a.561.561 0 0 1-.561-.547V1.709c0-.314.247-.56.561-.56h2.872V.67c0-.315.246-.561.561-.561.314 0 .561.246.561.561v.479h6.864V.67c0-.315.247-.561.561-.561.314 0 .561.246.561.561v.479h2.776c.314 0 .561.246.561.56v12.513a.555.555 0 0 1-.561.561zM1.771 13.675h13.634V4.841H1.771v8.834zM15.419 2.27H13.19v.301a.556.556 0 0 1-.561.561.556.556 0 0 1-.561-.561V2.27H5.204v.301a.556.556 0 0 1-.561.561.555.555 0 0 1-.561-.561V2.27H1.771v1.45h13.648V2.27z"/>
    <path fill="#079FC2" fill-rule="evenodd" d="M12.629 7.412H4.561a.554.554 0 0 0-.561.56c0 .315.246.561.561.561h8.068a.555.555 0 0 0 .561-.561.555.555 0 0 0-.561-.56zM8.595 10.12H4.561a.554.554 0 0 0-.561.56c0 .315.246.561.561.561h4.034c.315 0 .56-.246.56-.561a.553.553 0 0 0-.56-.56z"/>
</svg>
