<svg xmlns="http://www.w3.org/2000/svg" width="15" height="20">
    <path fill="#079FC2" fill-rule="evenodd" d="M13.843 9.422a7.152 7.152 0 0 1-2.07 3.065 4.978 4.978 0 0 0-1.958 3.279l-.002.035a.245.245 0 0 1-.16.173v.002h-.002a9.146 9.146 0 0 1-2.522.354 9.205 9.205 0 0 1-2.52-.347l-.017-.004-.009-.002a.239.239 0 0 1-.154-.199h-.003a4.97 4.97 0 0 0-1.765-3.123A7.148 7.148 0 0 1 .394 9.446 7.117 7.117 0 0 1 0 7.125 7.124 7.124 0 0 1 7.103 0c3.921-.007 7.118 3.18 7.125 7.101a7.038 7.038 0 0 1-.385 2.321zM7.106 2.133a4.988 4.988 0 0 0-4.973 4.988 4.98 4.98 0 0 0 1.821 3.837v.002a7.187 7.187 0 0 1 2.268 3.21 7.39 7.39 0 0 0 1.797-.001 7.108 7.108 0 0 1 2.074-3.067 4.954 4.954 0 0 0 2.001-3.997 4.984 4.984 0 0 0-4.988-4.972z"/>
    <path fill="#079FC2" fill-rule="evenodd" d="M7.12 10.396a3.288 3.288 0 0 1-3.288-3.227.854.854 0 0 1 1.705-.021v.017a1.58 1.58 0 0 0 1.578 1.524 1.58 1.58 0 0 0 1.574-1.498v-.002c.002-.025.002-.052.002-.078v-.019a.855.855 0 0 1 1.706.047v.066a3.29 3.29 0 0 1-3.277 3.191zM4.574 16.77l.011.002a9.748 9.748 0 0 0 2.548.325 10.096 10.096 0 0 0 2.526-.327l.006-.002c.005-.002.011-.002.018-.002.045 0 .082.036.084.081v.003c0 .002 0 .005-.002.008a2.643 2.643 0 0 1-2.641 2.54 2.645 2.645 0 0 1-2.649-2.525v-.002c-.002-.01-.002-.019-.002-.028a.086.086 0 0 1 .084-.075l.017.002z"/>
</svg>
