<svg xmlns="http://www.w3.org/2000/svg" width="15" height="14">
    <path fill="#079FC2" fill-rule="evenodd" d="M14.383.195a.657.657 0 0 0-.93 0L.773 12.876a.656.656 0 1 0 .929.929L14.383 1.124a.658.658 0 0 0 0-.929zM3.697 6.249A3.124 3.124 0 0 1 .576 3.128c0-1.721 1.4-3.121 3.121-3.121 1.72 0 3.121 1.4 3.121 3.121s-1.4 3.121-3.121 3.121zm0-4.928c-.997 0-1.807.811-1.807 1.807 0 .996.81 1.807 1.807 1.807a1.81 1.81 0 0 0 1.807-1.807 1.81 1.81 0 0 0-1.807-1.807zM11.455 13.997a3.125 3.125 0 0 1-3.122-3.121c0-1.721 1.4-3.121 3.122-3.121 1.72 0 3.12 1.399 3.12 3.121 0 1.721-1.4 3.121-3.12 3.121zm0-4.929c-.997 0-1.807.811-1.807 1.807 0 .997.81 1.807 1.807 1.807a1.808 1.808 0 0 0 0-3.614z"/>
</svg>
