<svg xmlns="http://www.w3.org/2000/svg" width="19" height="18">
    <path fill="#079FC2" fill-rule="evenodd" d="M9.615 18c-4.962 0-9-4.038-9-9 0-4.963 4.038-9 9-9s9 4.037 9 9c0 4.962-4.038 9-9 9zm0-16.875C5.274 1.125 1.74 4.657 1.74 9c0 4.342 3.534 7.875 7.875 7.875 4.342 0 7.875-3.533 7.875-7.875 0-4.343-3.533-7.875-7.875-7.875z"/>
    <path fill="#079FC2" fill-rule="evenodd" d="M11.865 9h-2.25v1.125h1.688a.562.562 0 0 1 0 1.125H9.615v1.687a.563.563 0 1 1-1.125 0V11.25H6.803a.563.563 0 1 1 0-1.125H8.49V5.062c0-.31.252-.562.563-.562h2.812a2.252 2.252 0 0 1 2.25 2.25A2.252 2.252 0 0 1 11.865 9zm0-3.375h-2.25v2.25h2.25a1.126 1.126 0 0 0 0-2.25z"/>
</svg>
